<?xml version="1.0" encoding="UTF-8"?>
<svg width="70px" height="70px" viewBox="0 0 70 70" version="1.1" xmlns="http://www.w3.org/2000/svg" xmlns:xlink="http://www.w3.org/1999/xlink">
    <!-- Generator: Sketch 41.1 (35376) - http://www.bohemiancoding.com/sketch -->
    <title>angular-logo</title>
    <desc>Created with Sketch.</desc>
    <defs></defs>
    <g stroke="none" stroke-width="1" fill="none" fill-rule="evenodd">
        <g transform="translate(-534.000000, -1406.000000)">
            <g transform="translate(535.000000, 1407.000000)">
                <circle stroke="#F0F0F0" fill="#F4F4F4" cx="34" cy="34" r="34"></circle>
                <g transform="translate(13.843750, 12.500000)">
                    <g transform="translate(0.347441, 0.264717)">
                        <g>
                            <polygon fill="#B3B3B3" points="19.627744 0.0528886764 0.130626842 6.96516022 3.21167547 32.6987634 19.6484934 41.7996833 36.1699595 32.5754826 39.249829 6.84282964"></polygon>
                            <polygon fill="#A6120D" points="37.3050454 8.33003693 19.5822369 2.24153714 19.5822369 39.625287 34.4347918 31.3443381"></polygon>
                            <polygon fill="#DD1B16" points="2.31850854 8.43977815 4.95863264 31.4543169 19.5820011 39.625287 19.5820011 2.24082453"></polygon>
                            <path d="M24.4607014,22.1427033 L19.5822369,24.4408555 L14.4403965,24.4408555 L12.0233284,30.5312555 L7.5275486,30.6151053 L19.5822369,3.59905025 L24.4607014,22.1427033 L24.4607014,22.1427033 L24.4607014,22.1427033 Z M23.9891244,20.9856698 L19.6145399,12.2612429 L16.0263101,20.8355475 L19.5820011,20.8355475 L23.9891244,20.9856698 L23.9891244,20.9856698 L23.9891244,20.9856698 Z" fill="#F2F2F2"></path>
                            <polygon fill="#B3B3B3" points="19.5820011 3.59905025 19.6143041 12.2612429 23.6859002 20.8421986 19.5911968 20.8421986 19.5820011 24.4353921 25.2439908 24.4408555 27.8902455 30.6160555 32.1919712 30.6963424"></polygon>
                        </g>
                    </g>
                </g>
            </g>
        </g>
    </g>
</svg>