<?xml version="1.0" encoding="UTF-8"?>
<svg width="459px" height="146px" viewBox="0 0 459 146" version="1.1" xmlns="http://www.w3.org/2000/svg" xmlns:xlink="http://www.w3.org/1999/xlink">
    <!-- Generator: Sketch 40.3 (33839) - http://www.bohemiancoding.com/sketch -->
    <title>fullstack-logo</title>
    <desc>Created with Sketch.</desc>
    <defs>
        <linearGradient x1="50%" y1="0%" x2="50%" y2="100%" id="linearGradient-1">
            <stop stop-color="#F5515F" offset="0%"></stop>
            <stop stop-color="#9F031B" offset="100%"></stop>
        </linearGradient>
    </defs>
    <g stroke="none" stroke-width="1" fill="none" fill-rule="evenodd">
        <g transform="translate(-489.000000, -243.000000)">
            <g transform="translate(489.000000, 243.000000)">
                <polyline fill="url(#linearGradient-1)" points="203.62956 0.185430464 188.564885 49.4894654 212.722449 49.4894654 203.62956 90.0860927 246.21374 30.751358 218.9663 30.751358 237.574019 0.596879333 203.62956 0.596879333"></polyline>
                <path d="M8.94637127,65 L1.80637127,65 C0.630365392,65 0.0423712724,64.4120059 0.0423712724,63.236 L0.0423712724,12.752 C0.0423712724,11.5759941 0.630365392,10.988 1.80637127,10.988 L28.6023713,10.988 C29.7223769,10.988 30.2823713,11.5759941 30.2823713,12.752 L30.2823713,18.464 C30.2823713,19.6400059 29.7223769,20.228 28.6023713,20.228 L11.7183713,20.228 C11.0463679,20.228 10.7103713,20.5359969 10.7103713,21.152 L10.7103713,34.172 C10.7103713,34.8440034 11.0463679,35.18 11.7183713,35.18 L26.0823713,35.18 C27.2583772,35.18 27.8463713,35.7679941 27.8463713,36.944 L27.8463713,42.572 C27.8463713,43.8040062 27.2583772,44.42 26.0823713,44.42 L11.7183713,44.42 C11.0463679,44.42 10.7103713,44.7279969 10.7103713,45.344 L10.7103713,63.236 C10.7103713,64.4120059 10.1223772,65 8.94637127,65 L8.94637127,65 Z M71.3583714,10.988 L78.4143714,10.988 C79.6463775,10.988 80.2623714,11.5479944 80.2623714,12.668 L80.2623714,51.308 C80.2623714,55.6760218 79.0443836,59.0499881 76.6083714,61.43 C74.1723592,63.8100119 70.7703932,65 66.4023714,65 L57.1623714,65 C52.7383493,65 49.3223834,63.8240118 46.9143714,61.472 C44.5063593,59.1199882 43.3023714,55.7320221 43.3023714,51.308 L43.3023714,12.752 C43.3023714,11.5759941 43.8903655,10.988 45.0663714,10.988 L52.2063714,10.988 C53.3823773,10.988 53.9703714,11.5759941 53.9703714,12.752 L53.9703714,50.804 C53.9703714,52.596009 54.3483676,53.8699962 55.1043714,54.626 C55.8603752,55.3820038 57.1063627,55.76 58.8423714,55.76 L64.6383714,55.76 C66.4303803,55.76 67.7043676,55.3820038 68.4603714,54.626 C69.2163752,53.8699962 69.5943714,52.596009 69.5943714,50.804 L69.5943714,12.752 C69.5943714,11.5759941 70.1823655,10.988 71.3583714,10.988 L71.3583714,10.988 Z M126.042372,65 L98.4063715,65 C97.2303656,65 96.6423715,64.4120059 96.6423715,63.236 L96.6423715,12.752 C96.6423715,11.5759941 97.2303656,10.988 98.4063715,10.988 L105.546372,10.988 C106.722377,10.988 107.310372,11.5759941 107.310372,12.752 L107.310372,54.752 C107.310372,55.3680031 107.646368,55.676 108.318372,55.676 L126.042372,55.676 C127.162377,55.676 127.722372,56.2919938 127.722372,57.524 L127.722372,63.236 C127.722372,64.4120059 127.162377,65 126.042372,65 L126.042372,65 Z M169.638372,65 L142.002372,65 C140.826366,65 140.238372,64.4120059 140.238372,63.236 L140.238372,12.752 C140.238372,11.5759941 140.826366,10.988 142.002372,10.988 L149.142372,10.988 C150.318377,10.988 150.906372,11.5759941 150.906372,12.752 L150.906372,54.752 C150.906372,55.3680031 151.242368,55.676 151.914372,55.676 L169.638372,55.676 C170.758377,55.676 171.318372,56.2919938 171.318372,57.524 L171.318372,63.236 C171.318372,64.4120059 170.758377,65 169.638372,65 L169.638372,65 Z" fill="#565961"></path>
                <path d="M288.099012,65 L281.043012,65 C279.811006,65 279.195012,64.4120059 279.195012,63.236 L279.195012,21.152 C279.195012,20.5359969 278.887016,20.228 278.271012,20.228 L268.695012,20.228 C267.519007,20.228 266.931012,19.6400059 266.931012,18.464 L266.931012,12.752 C266.931012,11.5759941 267.519007,10.988 268.695012,10.988 L300.447012,10.988 C301.623018,10.988 302.211012,11.5759941 302.211012,12.752 L302.211012,18.464 C302.211012,19.6400059 301.623018,20.228 300.447012,20.228 L290.871012,20.228 C290.199009,20.228 289.863012,20.5359969 289.863012,21.152 L289.863012,63.236 C289.863012,64.4120059 289.275018,65 288.099012,65 L288.099012,65 Z M320.103013,65 L312.039013,65 C311.031008,65 310.695011,64.4120059 311.031013,63.236 L324.303013,12.752 C324.695015,11.5759941 325.535006,10.988 326.823013,10.988 L337.995013,10.988 C339.39502,10.988 340.235011,11.5759941 340.515013,12.752 L353.787013,63.236 C354.123014,64.4120059 353.787018,65 352.779013,65 L344.715013,65 C344.09901,65 343.679014,64.8740013 343.455013,64.622 C343.231011,64.3699987 343.063013,63.9080034 342.951013,63.236 L340.599013,53.996 L324.219013,53.996 L321.867013,63.236 C321.755012,63.9080034 321.573014,64.3699987 321.321013,64.622 C321.069011,64.8740013 320.663015,65 320.103013,65 L320.103013,65 Z M332.283013,21.152 L326.235013,45.428 L338.667013,45.428 L332.619013,21.152 L332.283013,21.152 Z M389.319013,65 L380.163013,65 C375.738991,65 372.323025,63.8240118 369.915013,61.472 C367.507001,59.1199882 366.303013,55.7320221 366.303013,51.308 L366.303013,24.68 C366.303013,20.2559779 367.507001,16.8680118 369.915013,14.516 C372.323025,12.1639882 375.738991,10.988 380.163013,10.988 L389.319013,10.988 C393.687035,10.988 397.089001,12.1779881 399.525013,14.558 C401.961025,16.9380119 403.179013,20.3119782 403.179013,24.68 L403.179013,28.628 C403.179013,29.8600062 402.563019,30.476 401.331013,30.476 L394.275013,30.476 C393.099007,30.476 392.511013,29.8600062 392.511013,28.628 L392.511013,25.184 C392.511013,23.391991 392.133017,22.1180038 391.377013,21.362 C390.621009,20.6059962 389.347022,20.228 387.555013,20.228 L381.843013,20.228 C380.107004,20.228 378.861017,20.6059962 378.105013,21.362 C377.349009,22.1180038 376.971013,23.391991 376.971013,25.184 L376.971013,50.804 C376.971013,52.596009 377.349009,53.8699962 378.105013,54.626 C378.861017,55.3820038 380.107004,55.76 381.843013,55.76 L387.555013,55.76 C389.347022,55.76 390.621009,55.3820038 391.377013,54.626 C392.133017,53.8699962 392.511013,52.596009 392.511013,50.804 L392.511013,47.36 C392.511013,46.1279938 393.099007,45.512 394.275013,45.512 L401.331013,45.512 C402.563019,45.512 403.179013,46.1279938 403.179013,47.36 L403.179013,51.308 C403.179013,55.6760218 401.961025,59.0499881 399.525013,61.43 C397.089001,63.8100119 393.687035,65 389.319013,65 L389.319013,65 Z M427.119013,65 L419.979013,65 C418.803007,65 418.215013,64.4120059 418.215013,63.236 L418.215013,12.752 C418.215013,11.5759941 418.803007,10.988 419.979013,10.988 L427.119013,10.988 C428.295019,10.988 428.883013,11.5759941 428.883013,12.752 L428.883013,36.692 L429.051013,36.692 C429.499015,35.3479933 430.367006,33.6120106 431.655013,31.484 L444.423013,12.752 C445.151016,11.5759941 446.243006,10.988 447.699013,10.988 L455.931013,10.988 C456.547016,10.988 456.925012,11.1699982 457.065013,11.534 C457.205014,11.8980018 457.051015,12.3599972 456.603013,12.92 L440.643013,35.012 L458.451013,62.9 C458.843015,63.5720034 458.913014,64.0899982 458.661013,64.454 C458.409012,64.8180018 457.891017,65 457.107013,65 L450.975013,65 C449.015003,65 447.699016,64.4120059 447.027013,63.236 L434.175013,42.656 L428.883013,48.872 L428.883013,63.236 C428.883013,64.4120059 428.295019,65 427.119013,65 L427.119013,65 Z" fill="#565961"></path>
                <path d="M51.3535975,143.408 L62.4127975,143.408 C64.1792064,143.408 65.5327928,142.918405 66.4735975,141.9392 C67.4144022,140.959995 67.8847975,139.548809 67.8847975,137.7056 L67.8847975,117.2576 C67.8847975,115.414391 67.4144022,114.003205 66.4735975,113.024 C65.5327928,112.044795 64.1792064,111.5552 62.4127975,111.5552 L51.3535975,111.5552 C50.9695956,111.5552 50.7775975,111.727998 50.7775975,112.0736 L50.7775975,142.8896 C50.7775975,143.235202 50.9695956,143.408 51.3535975,143.408 L51.3535975,143.408 Z M47.8975975,145.3088 L47.8975975,109.6544 C47.8975975,109.193598 48.0895956,108.9632 48.4735975,108.9632 L62.7007975,108.9632 C65.19681,108.9632 67.1647903,109.692793 68.6047975,111.152 C70.0448047,112.611207 70.7647975,114.607987 70.7647975,117.1424 L70.7647975,137.8208 C70.7647975,140.355213 70.0448047,142.351993 68.6047975,143.8112 C67.1647903,145.270407 65.19681,146 62.7007975,146 L48.4735975,146 C48.0895956,146 47.8975975,145.769602 47.8975975,145.3088 L47.8975975,145.3088 Z M102.387198,146 L84.588798,146 C84.2047961,146 84.012798,145.769602 84.012798,145.3088 L84.012798,109.6544 C84.012798,109.193598 84.2047961,108.9632 84.588798,108.9632 L102.387198,108.9632 C102.848,108.9632 103.078398,109.174398 103.078398,109.5968 L103.078398,110.9216 C103.078398,111.344002 102.848,111.5552 102.387198,111.5552 L87.468798,111.5552 C87.0847961,111.5552 86.892798,111.727998 86.892798,112.0736 L86.892798,125.3216 C86.892798,125.667202 87.0847961,125.84 87.468798,125.84 L100.774398,125.84 C101.1968,125.84 101.407998,126.051198 101.407998,126.4736 L101.407998,127.7984 C101.407998,128.220802 101.1968,128.432 100.774398,128.432 L87.468798,128.432 C87.0847961,128.432 86.892798,128.604798 86.892798,128.9504 L86.892798,142.8896 C86.892798,143.235202 87.0847961,143.408 87.468798,143.408 L102.387198,143.408 C102.848,143.408 103.078398,143.619198 103.078398,144.0416 L103.078398,145.3664 C103.078398,145.788802 102.848,146 102.387198,146 L102.387198,146 Z M126.579198,146 L123.929598,146 C123.545597,146 123.295999,145.769602 123.180798,145.3088 L112.467198,109.6544 C112.313598,109.193598 112.486396,108.9632 112.985598,108.9632 L114.771198,108.9632 C115.1552,108.9632 115.404798,109.193598 115.519998,109.6544 L125.139198,142.4288 L125.369598,142.4288 L134.988798,109.6544 C135.103999,109.193598 135.353597,108.9632 135.737598,108.9632 L137.523198,108.9632 C137.984001,108.9632 138.156799,109.193598 138.041598,109.6544 L127.327998,145.3088 C127.212798,145.769602 126.9632,146 126.579198,146 L126.579198,146 Z M166.956799,146 L149.158399,146 C148.774397,146 148.582399,145.769602 148.582399,145.3088 L148.582399,109.6544 C148.582399,109.193598 148.774397,108.9632 149.158399,108.9632 L166.956799,108.9632 C167.417601,108.9632 167.647999,109.174398 167.647999,109.5968 L167.647999,110.9216 C167.647999,111.344002 167.417601,111.5552 166.956799,111.5552 L152.038399,111.5552 C151.654397,111.5552 151.462399,111.727998 151.462399,112.0736 L151.462399,125.3216 C151.462399,125.667202 151.654397,125.84 152.038399,125.84 L165.343999,125.84 C165.766401,125.84 165.977599,126.051198 165.977599,126.4736 L165.977599,127.7984 C165.977599,128.220802 165.766401,128.432 165.343999,128.432 L152.038399,128.432 C151.654397,128.432 151.462399,128.604798 151.462399,128.9504 L151.462399,142.8896 C151.462399,143.235202 151.654397,143.408 152.038399,143.408 L166.956799,143.408 C167.417601,143.408 167.647999,143.619198 167.647999,144.0416 L167.647999,145.3664 C167.647999,145.788802 167.417601,146 166.956799,146 L166.956799,146 Z M199.212799,146 L180.895999,146 C180.511997,146 180.319999,145.769602 180.319999,145.3088 L180.319999,109.6544 C180.319999,109.193598 180.511997,108.9632 180.895999,108.9632 L182.566399,108.9632 C182.988801,108.9632 183.199999,109.193598 183.199999,109.6544 L183.199999,142.7744 C183.199999,143.120002 183.391997,143.2928 183.775999,143.2928 L199.212799,143.2928 C199.673602,143.2928 199.903999,143.503998 199.903999,143.9264 L199.903999,145.3664 C199.903999,145.788802 199.673602,146 199.212799,146 L199.212799,146 Z M218.048,143.408 L224.6144,143.408 C226.380809,143.408 227.734395,142.918405 228.6752,141.9392 C229.616004,140.959995 230.0864,139.548809 230.0864,137.7056 L230.0864,117.2576 C230.0864,115.414391 229.616004,114.003205 228.6752,113.024 C227.734395,112.044795 226.380809,111.5552 224.6144,111.5552 L218.048,111.5552 C216.281591,111.5552 214.937604,112.054395 214.016,113.0528 C213.094395,114.051205 212.6336,115.452791 212.6336,117.2576 L212.6336,137.7056 C212.6336,139.510409 213.094395,140.911995 214.016,141.9104 C214.937604,142.908805 216.281591,143.408 218.048,143.408 L218.048,143.408 Z M224.9024,146 L217.8176,146 C215.321587,146 213.353607,145.270407 211.9136,143.8112 C210.473593,142.351993 209.7536,140.355213 209.7536,137.8208 L209.7536,117.1424 C209.7536,114.607987 210.473593,112.611207 211.9136,111.152 C213.353607,109.692793 215.321587,108.9632 217.8176,108.9632 L224.9024,108.9632 C227.398412,108.9632 229.366393,109.692793 230.8064,111.152 C232.246407,112.611207 232.9664,114.607987 232.9664,117.1424 L232.9664,137.8208 C232.9664,140.355213 232.246407,142.351993 230.8064,143.8112 C229.366393,145.270407 227.398412,146 224.9024,146 L224.9024,146 Z M248.4608,146 L246.7904,146 C246.406398,146 246.2144,145.769602 246.2144,145.3088 L246.2144,109.6544 C246.2144,109.193598 246.406398,108.9632 246.7904,108.9632 L260.0384,108.9632 C262.534413,108.9632 264.511993,109.692793 265.9712,111.152 C267.430408,112.611207 268.16,114.607987 268.16,117.1424 L268.16,123.8816 C268.16,126.416013 267.430408,128.412793 265.9712,129.872 C264.511993,131.331207 262.534413,132.0608 260.0384,132.0608 L249.6704,132.0608 C249.286398,132.0608 249.0944,132.214398 249.0944,132.5216 L249.0944,145.3088 C249.0944,145.769602 248.883202,146 248.4608,146 L248.4608,146 Z M249.6704,129.4112 L259.808,129.4112 C261.574409,129.4112 262.918396,128.921605 263.84,127.9424 C264.761605,126.963195 265.2224,125.571209 265.2224,123.7664 L265.2224,117.2576 C265.2224,115.414391 264.761605,114.003205 263.84,113.024 C262.918396,112.044795 261.574409,111.5552 259.808,111.5552 L249.6704,111.5552 C249.286398,111.5552 249.0944,111.727998 249.0944,112.0736 L249.0944,128.9504 C249.0944,129.257602 249.286398,129.4112 249.6704,129.4112 L249.6704,129.4112 Z M307.040001,108.9632 L310.150401,108.9632 C310.534403,108.9632 310.726401,109.193598 310.726401,109.6544 L310.726401,145.3088 C310.726401,145.769602 310.534403,146 310.150401,146 L308.480001,146 C308.057599,146 307.846401,145.769602 307.846401,145.3088 L307.846401,113.3984 L307.616001,113.3984 L297.420801,137.3024 C297.1904,137.724802 296.902402,137.936 296.556801,137.936 L294.656001,137.936 C294.271999,137.936 294.003201,137.724802 293.849601,137.3024 L283.481601,113.3408 L283.251201,113.3408 L283.251201,145.3088 C283.251201,145.769602 283.059203,146 282.675201,146 L281.004801,146 C280.620799,146 280.428801,145.769602 280.428801,145.3088 L280.428801,109.6544 C280.428801,109.193598 280.620799,108.9632 281.004801,108.9632 L284.115201,108.9632 C284.384002,108.9632 284.5568,109.078399 284.633601,109.3088 L295.462401,134.5952 L295.692801,134.5952 L306.521601,109.3088 C306.598401,109.078399 306.771199,108.9632 307.040001,108.9632 L307.040001,108.9632 Z M342.924801,146 L325.126401,146 C324.742399,146 324.550401,145.769602 324.550401,145.3088 L324.550401,109.6544 C324.550401,109.193598 324.742399,108.9632 325.126401,108.9632 L342.924801,108.9632 C343.385603,108.9632 343.616001,109.174398 343.616001,109.5968 L343.616001,110.9216 C343.616001,111.344002 343.385603,111.5552 342.924801,111.5552 L328.006401,111.5552 C327.622399,111.5552 327.430401,111.727998 327.430401,112.0736 L327.430401,125.3216 C327.430401,125.667202 327.622399,125.84 328.006401,125.84 L341.312001,125.84 C341.734403,125.84 341.945601,126.051198 341.945601,126.4736 L341.945601,127.7984 C341.945601,128.220802 341.734403,128.432 341.312001,128.432 L328.006401,128.432 C327.622399,128.432 327.430401,128.604798 327.430401,128.9504 L327.430401,142.8896 C327.430401,143.235202 327.622399,143.408 328.006401,143.408 L342.924801,143.408 C343.385603,143.408 343.616001,143.619198 343.616001,144.0416 L343.616001,145.3664 C343.616001,145.788802 343.385603,146 342.924801,146 L342.924801,146 Z M358.534402,146 L356.864002,146 C356.48,146 356.288002,145.769602 356.288002,145.3088 L356.288002,109.6544 C356.288002,109.193598 356.48,108.9632 356.864002,108.9632 L358.419202,108.9632 C358.764803,108.9632 358.995201,109.078399 359.110402,109.3088 L376.793602,139.7216 L377.024002,139.7216 L377.024002,109.6544 C377.024002,109.193598 377.235199,108.9632 377.657602,108.9632 L379.270402,108.9632 C379.692804,108.9632 379.904002,109.193598 379.904002,109.6544 L379.904002,145.3088 C379.904002,145.769602 379.692804,146 379.270402,146 L377.945602,146 C377.6,146 377.292803,145.788802 377.024002,145.3664 L359.398402,115.184 L359.168002,115.184 L359.168002,145.3088 C359.168002,145.769602 358.956804,146 358.534402,146 L358.534402,146 Z M401.734402,146 L400.064002,146 C399.6416,146 399.430402,145.769602 399.430402,145.3088 L399.430402,112.0736 C399.430402,111.727998 399.238404,111.5552 398.854402,111.5552 L390.502402,111.5552 C390.0416,111.5552 389.811202,111.344002 389.811202,110.9216 L389.811202,109.5968 C389.811202,109.174398 390.0416,108.9632 390.502402,108.9632 L411.238402,108.9632 C411.699204,108.9632 411.929602,109.174398 411.929602,109.5968 L411.929602,110.9216 C411.929602,111.344002 411.699204,111.5552 411.238402,111.5552 L402.886402,111.5552 C402.5024,111.5552 402.310402,111.727998 402.310402,112.0736 L402.310402,145.3088 C402.310402,145.769602 402.118404,146 401.734402,146 L401.734402,146 Z" fill="#565961"></path>
            </g>
        </g>
    </g>
</svg>