<?xml version="1.0" encoding="UTF-8"?>
<svg width="70px" height="70px" viewBox="0 0 70 70" version="1.1" xmlns="http://www.w3.org/2000/svg" xmlns:xlink="http://www.w3.org/1999/xlink">
    <!-- Generator: Sketch 41.1 (35376) - http://www.bohemiancoding.com/sketch -->
    <title>heroku-logo</title>
    <desc>Created with Sketch.</desc>
    <defs></defs>
    <g stroke="none" stroke-width="1" fill="none" fill-rule="evenodd">
        <g transform="translate(-134.000000, -1715.000000)">
            <g transform="translate(135.000000, 1716.000000)">
                <circle stroke="#F0F0F0" fill="#F4F4F4" cx="34" cy="34" r="34"></circle>
                <g transform="translate(19.000000, 11.000000)">
                    <g>
                        <g>
                            <path d="M3.23324096,45.8032048 L3.23324096,41.8036733 C3.23324096,41.5217005 3.02628711,41.4000557 2.78231091,41.4000557 C2.29321965,41.4000557 1.68234437,41.5217005 1.1277333,41.7658648 L1.1277333,45.8032113 L0,45.8032113 L0,38.3769642 L1.1277333,38.3769642 L1.1277333,40.8269704 C1.66372787,40.6300175 2.30278463,40.4611613 2.94194673,40.4611613 C3.96641375,40.4611613 4.351824,41.0901901 4.351824,41.9535201 L4.351824,45.8032113 L3.23324096,45.8032113 L3.23324096,45.8032048 L3.23324096,45.8032048 L3.23324096,45.8032048 Z M6.45681162,43.3810453 C6.49435402,44.7235574 6.75767085,44.9865206 7.58444618,44.9865206 C8.23306793,44.9865206 8.96624072,44.7704597 9.53031801,44.5544447 L9.71824066,45.3992321 C9.11662095,45.6718546 8.3835535,45.9345089 7.50967078,45.9345089 C5.6295294,45.9345089 5.3380245,44.9020662 5.3380245,43.2587824 C5.3380245,42.3576965 5.40405778,41.540756 5.62016191,40.7897208 C6.18402856,40.5737058 6.9360285,40.4611547 7.88509475,40.4611547 C9.42703857,40.4611547 9.89679579,41.3155947 9.89679579,42.8082625 L9.89679579,43.3810388 L6.45681162,43.3810388 L6.45681162,43.3810453 L6.45681162,43.3810453 L6.45681162,43.3810453 Z M7.88510132,41.4000557 C7.54721318,41.4000557 7.01121862,41.4094058 6.56954414,41.4935512 C6.52274615,41.7189625 6.46606721,42.028828 6.44724663,42.6016108 L8.79703991,42.6016108 C8.79703991,41.8221633 8.65602058,41.4000557 7.88510132,41.4000557 L7.88510132,41.4000557 L7.88510132,41.4000557 L7.88510132,41.4000557 Z M12.0111509,41.7658648 L12.0111509,45.8032113 L10.883207,45.8032113 L10.883207,41.2590397 C11.8325892,40.7428185 12.838229,40.5831085 13.4964224,40.5362062 L13.4964224,41.4751006 C13.035822,41.5126067 12.4528253,41.5689053 12.0111509,41.7658648 L12.0111509,41.7658648 L12.0111509,41.7658648 L12.0111509,41.7658648 Z M16.4757074,45.9345089 C14.7929484,45.9345089 14.0316928,45.1084746 14.0316928,43.2212829 C14.0316928,41.2215402 15.0373392,40.4611547 16.4757074,40.4611547 C18.157953,40.4611547 18.9194127,41.287189 18.9194127,43.1743807 C18.9194127,45.1741299 17.9135621,45.9345089 16.4757074,45.9345089 L16.4757074,45.9345089 L16.4757074,45.9345089 L16.4757074,45.9345089 Z M16.4757074,41.4000557 C15.6107709,41.4000557 15.131554,41.8974714 15.131554,43.2212895 C15.131554,44.6673115 15.5356861,44.9865272 16.4757074,44.9865272 C17.3402293,44.9865272 17.8197555,44.4981528 17.8197555,43.1743872 C17.8197555,41.7283587 17.4155246,41.4000557 16.4757074,41.4000557 L16.4757074,41.4000557 L16.4757074,41.4000557 L16.4757074,41.4000557 Z M24.3610194,45.8032048 L23.0356931,45.8032048 C22.7256771,44.9771178 22.2930607,44.1320281 21.6257105,43.3997918 L21.0335571,43.3997918 L21.0335571,45.8032048 L19.9057184,45.8032048 L19.9057184,38.3769642 L21.0335571,38.3769642 L21.0335571,42.6391038 L21.5599866,42.6391038 C22.1333196,42.0475745 22.574994,41.3156013 22.8853129,40.5924588 L24.1540655,40.5924588 C23.7218573,41.4657044 23.167345,42.2354862 22.5469047,42.864515 C23.2895438,43.803416 23.8722376,44.7986089 24.3610194,45.8032048 L24.3610194,45.8032048 L24.3610194,45.8032048 L24.3610194,45.8032048 Z M26.4751639,45.9345089 C25.450901,45.9345089 25.0654906,45.3057365 25.0654906,44.4418936 L25.0654906,40.5924588 L26.1838696,40.5924588 L26.1838696,44.5825939 C26.1838696,44.8645667 26.3905141,44.9865206 26.634905,44.9865206 C27.1236869,44.9865206 27.7910304,44.8645667 28.3458456,44.6204025 L28.3458456,40.5924588 L29.4736842,40.5924588 L29.4736842,45.1178248 C28.1389971,45.850107 27.1143259,45.9345089 26.4751639,45.9345089 L26.4751639,45.9345089 L26.4751639,45.9345089 L26.4751639,45.9345089 Z" fill="#6762A6"></path>
                            <g>
                                <path d="M25.9768569,36.484071 L3.48355188,36.484071 C1.5595407,36.484071 0,34.9264444 0,33.0047828 L0,3.47943883 C0,1.55775836 1.5595407,0 3.48355188,0 L25.9768569,0 C27.9005853,0 29.4607105,1.55775836 29.4607105,3.47943883 L29.4607105,33.0047828 C29.4607105,34.9264444 27.9005853,36.484071 25.9768569,36.484071 L25.9768569,36.484071 L25.9768569,36.484071 L25.9768569,36.484071 Z" fill="#6762A6"></path>
                                <path d="M18.4625949,31.4640895 L18.4625949,16.9751267 C18.4625949,16.9751267 19.4060356,13.5079121 6.8407233,18.3935394 C6.81773648,18.4554896 6.81773648,4.99557057 6.81773648,4.99557057 L10.9232906,4.97040625 L10.9232906,13.5943109 C10.9232906,13.5943109 22.4187629,9.07185218 22.4187629,17.0240049 L22.4187629,31.4641272 L18.4625949,31.4641272 L18.4625949,31.4640895 L18.4625949,31.4640895 L18.4625949,31.4640895 Z M20.8020663,10.1897434 L16.4472398,10.1897434 C18.0147382,8.27542767 19.4337368,4.9955329 19.4337368,4.9955329 L23.9364596,4.9955329 C23.9364596,4.99555173 23.1656746,7.13293717 20.8020663,10.1897434 L20.8020663,10.1897434 L20.8020663,10.1897434 L20.8020663,10.1897434 Z M6.89227868,31.4389252 L6.89227868,23.1879084 L11.022875,27.3137841 L6.89227868,31.4389252 L6.89227868,31.4389252 L6.89227868,31.4389252 Z" fill="#FFFFFF"></path>
                            </g>
                        </g>
                    </g>
                </g>
            </g>
        </g>
    </g>
</svg>