<?xml version="1.0" encoding="UTF-8"?>
<svg width="70px" height="70px" viewBox="0 0 70 70" version="1.1" xmlns="http://www.w3.org/2000/svg" xmlns:xlink="http://www.w3.org/1999/xlink">
    <!-- Generator: Sketch 41.1 (35376) - http://www.bohemiancoding.com/sketch -->
    <title>java-logo</title>
    <desc>Created with Sketch.</desc>
    <defs></defs>
    <g stroke="none" stroke-width="1" fill="none" fill-rule="evenodd">
        <g transform="translate(-734.000000, -1862.000000)">
            <g transform="translate(735.000000, 1863.000000)">
                <circle stroke="#F0F0F0" fill="#F4F4F4" cx="34" cy="34" r="34"></circle>
                <g transform="translate(19.000000, 4.500000)">
                    <g>
                        <g transform="translate(14.637733, 27.965102) scale(1, -1) translate(-14.637733, -27.965102) translate(0.137733, 0.965102)">
                            <path d="M17.7173236,53.2193878 C18.538514,52.2716327 18.8096767,50.9158929 18.5738535,49.6933163 C18.3199075,48.3201276 17.5682634,47.1062755 16.6854555,46.0607143 C15.9775327,45.2190306 15.1642711,44.4749235 14.3165761,43.783852 C13.3286558,42.9775255 12.3581787,42.1094388 11.7376986,40.9752551 C11.2130429,40.0539031 11.0907139,38.919949 11.4490927,37.918699 C12.0346863,36.1999745 13.3986552,34.9241327 14.1416909,33.3027551 C13.3198209,34.0381378 12.5156207,34.8001531 11.7637502,35.60625 C10.9769931,36.4568878 10.2339575,37.3605612 9.74441473,38.423801 C9.41231402,39.1681378 9.26370689,40.0362245 9.51719986,40.8246429 C9.77069283,41.6309694 10.3388433,42.2777296 10.9072203,42.8801786 C12.4893426,44.4838776 14.4386786,45.6621429 15.9859146,47.2922449 C16.843124,48.1871939 17.5510467,49.2591582 17.7957048,50.4906888 C17.9968682,51.3943622 17.9005907,52.3246684 17.7173236,53.2193878" fill="#E9232E"></path>
                            <path d="M17.7173236,53.2193878 C18.538514,52.2716327 18.8096767,50.9158929 18.5738535,49.6933163 C18.3199075,48.3201276 17.5682634,47.1062755 16.6854555,46.0607143 C15.9775327,45.2190306 15.1642711,44.4749235 14.3165761,43.783852 C13.3286558,42.9775255 12.3581787,42.1094388 11.7376986,40.9752551 C11.2130429,40.0539031 11.0907139,38.919949 11.4490927,37.918699 C12.0346863,36.1999745 13.3986552,34.9241327 14.1416909,33.3027551 C13.3198209,34.0381378 12.5156207,34.8001531 11.7637502,35.60625 C10.9769931,36.4568878 10.2339575,37.3605612 9.74441473,38.423801 C9.41231402,39.1681378 9.26370689,40.0362245 9.51719986,40.8246429 C9.77069283,41.6309694 10.3388433,42.2777296 10.9072203,42.8801786 C12.4893426,44.4838776 14.4386786,45.6621429 15.9859146,47.2922449 C16.843124,48.1871939 17.5510467,49.2591582 17.7957048,50.4906888 C17.9968682,51.3943622 17.9005907,52.3246684 17.7173236,53.2193878 L17.7173236,53.2193878 Z" stroke="#E9232E" stroke-width="0.1"></path>
                            <path d="M16.4238072,43.1288265 C18.1196503,44.3959439 20.1040993,45.2020408 22.1145998,45.7868112 C20.5240957,44.7591582 18.863139,43.8201276 17.4905618,42.4999745 C16.9919577,42.0127806 16.5203113,41.4544133 16.3017047,40.7722959 C16.1354278,40.2671939 16.2052007,39.7090561 16.4065906,39.2305867 C16.7738042,38.3801786 17.3940578,37.6891071 17.8661573,36.9094133 C18.268484,36.2449745 18.3382568,35.3943367 18.0326607,34.6766327 C17.568943,33.6223469 16.6600835,32.8516071 15.7158845,32.2404337 C15.5933289,32.1694898 15.4884431,32.0365561 15.339836,32.0188776 C15.9693775,32.5946939 16.4586937,33.4097449 16.441477,34.2870153 C16.4238072,34.9425 16.0654284,35.5183163 15.6458851,35.9880612 C14.7805204,37.0333929 14.0549279,38.3625 14.203535,39.7710459 C14.3521422,41.1798214 15.3486708,42.3137755 16.4238072,43.1288265" fill="#E9232E"></path>
                            <path d="M16.4238072,43.1288265 C18.1196503,44.3959439 20.1040993,45.2020408 22.1145998,45.7868112 C20.5240957,44.7591582 18.863139,43.8201276 17.4905618,42.4999745 C16.9919577,42.0127806 16.5203113,41.4544133 16.3017047,40.7722959 C16.1354278,40.2671939 16.2052007,39.7090561 16.4065906,39.2305867 C16.7738042,38.3801786 17.3940578,37.6891071 17.8661573,36.9094133 C18.268484,36.2449745 18.3382568,35.3943367 18.0326607,34.6766327 C17.568943,33.6223469 16.6600835,32.8516071 15.7158845,32.2404337 C15.5933289,32.1694898 15.4884431,32.0365561 15.339836,32.0188776 C15.9693775,32.5946939 16.4586937,33.4097449 16.441477,34.2870153 C16.4238072,34.9425 16.0654284,35.5183163 15.6458851,35.9880612 C14.7805204,37.0333929 14.0549279,38.3625 14.203535,39.7710459 C14.3521422,41.1798214 15.3486708,42.3137755 16.4238072,43.1288265 L16.4238072,43.1288265 Z" stroke="#E9232E" stroke-width="0.1"></path>
                            <path d="M22.4383187,32.8867347 C22.8050793,33.3385714 23.3908995,33.4538265 23.923937,33.5247704 C24.8509194,33.64875 25.8386131,33.4095153 26.5379275,32.7627551 C27.1149129,32.2402041 27.4384052,31.4249235 27.3158497,30.6365051 C27.1849123,29.7238776 26.5814223,28.9618622 25.9000042,28.3860459 C24.6674258,27.3850255 23.1462414,26.8002551 21.6250571,26.4104082 C21.7127262,26.5079847 21.8087772,26.5963776 21.9222714,26.6673214 C23.076242,27.2964031 24.2213778,28.0315561 25.0695259,29.0594388 C25.5848936,29.6972449 25.9872203,30.5302041 25.8211699,31.3718878 C25.6465112,32.3462755 24.7111471,33.0552551 23.7581132,33.1082908 C23.3032304,33.152602 22.8753053,32.9753571 22.4383187,32.8867347" fill="#3471C0"></path>
                            <path d="M22.4383187,32.8867347 C22.8050793,33.3385714 23.3908995,33.4538265 23.923937,33.5247704 C24.8509194,33.64875 25.8386131,33.4095153 26.5379275,32.7627551 C27.1149129,32.2402041 27.4384052,31.4249235 27.3158497,30.6365051 C27.1849123,29.7238776 26.5814223,28.9618622 25.9000042,28.3860459 C24.6674258,27.3850255 23.1462414,26.8002551 21.6250571,26.4104082 C21.7127262,26.5079847 21.8087772,26.5963776 21.9222714,26.6673214 C23.076242,27.2964031 24.2213778,28.0315561 25.0695259,29.0594388 C25.5848936,29.6972449 25.9872203,30.5302041 25.8211699,31.3718878 C25.6465112,32.3462755 24.7111471,33.0552551 23.7581132,33.1082908 C23.3032304,33.152602 22.8753053,32.9753571 22.4383187,32.8867347 L22.4383187,32.8867347 Z" stroke="#3471C0" stroke-width="0.1"></path>
                            <path d="M4.86597765,32.0808673 C6.47437808,32.7806633 8.22277731,33.2325 9.97978488,33.2060969 C8.95697813,32.9048724 7.90811982,32.6479592 6.94647759,32.1871684 C6.71926271,32.0631888 6.45693486,31.9479337 6.32577094,31.708699 C6.25599808,31.5227296 6.44809999,31.39875 6.58787225,31.3367602 C7.18230081,31.0885714 7.83812042,31.0529847 8.47627028,30.9909949 C10.7139857,30.8403827 12.9607625,30.9290051 15.1903227,31.0708929 C17.3926986,31.212551 19.5785374,31.5137755 21.7548618,31.8682653 C21.2743805,31.6377551 20.7846112,31.4074745 20.3390163,31.1152041 C20.1115749,30.9556378 19.8320304,30.9113265 19.5785374,30.8493367 C16.9033824,30.2468878 14.158228,30.0606888 11.4309698,30.0166071 C10.3730501,30.0076531 9.32441834,30.0253316 8.27533349,30.0962755 C7.1039196,30.1759439 5.92367083,30.2645663 4.77853503,30.5747449 C4.44620779,30.6720918 4.09666386,30.7783929 3.83433602,31.0176276 C3.70317209,31.1239286 3.70317209,31.3367602 3.8168928,31.4605102 C4.1052722,31.7619643 4.50759885,31.9036224 4.86597765,32.0808673" fill="#3471C0"></path>
                            <path d="M4.86597765,32.0808673 C6.47437808,32.7806633 8.22277731,33.2325 9.97978488,33.2060969 C8.95697813,32.9048724 7.90811982,32.6479592 6.94647759,32.1871684 C6.71926271,32.0631888 6.45693486,31.9479337 6.32577094,31.708699 C6.25599808,31.5227296 6.44809999,31.39875 6.58787225,31.3367602 C7.18230081,31.0885714 7.83812042,31.0529847 8.47627028,30.9909949 C10.7139857,30.8403827 12.9607625,30.9290051 15.1903227,31.0708929 C17.3926986,31.212551 19.5785374,31.5137755 21.7548618,31.8682653 C21.2743805,31.6377551 20.7846112,31.4074745 20.3390163,31.1152041 C20.1115749,30.9556378 19.8320304,30.9113265 19.5785374,30.8493367 C16.9033824,30.2468878 14.158228,30.0606888 11.4309698,30.0166071 C10.3730501,30.0076531 9.32441834,30.0253316 8.27533349,30.0962755 C7.1039196,30.1759439 5.92367083,30.2645663 4.77853503,30.5747449 C4.44620779,30.6720918 4.09666386,30.7783929 3.83433602,31.0176276 C3.70317209,31.1239286 3.70317209,31.3367602 3.8168928,31.4605102 C4.1052722,31.7619643 4.50759885,31.9036224 4.86597765,32.0808673 L4.86597765,32.0808673 Z" stroke="#3471C0" stroke-width="0.1"></path>
                            <path d="M6.92971398,28.2971939 C7.38437027,28.6604082 7.92646917,28.8642857 8.46834155,29.0592092 C8.29368285,28.8466071 8.04879822,28.6427296 8.03135501,28.3504592 C8.02274667,28.1644898 8.1713538,28.022602 8.31973441,27.9339796 C8.60811381,27.7833673 8.93160618,27.730102 9.25532508,27.6860204 C10.9334984,27.5087755 12.6293414,27.411199 14.325411,27.5264541 C15.8724204,27.6061224 17.4112745,27.8632653 18.9412937,28.1378571 C19.360837,27.7390561 19.8589881,27.4644643 20.3836438,27.2252296 C18.5387405,26.6760459 16.6419607,26.3569133 14.736346,26.206301 C12.9356171,26.0823214 11.1086101,26.0910459 9.31626307,26.3837755 C8.60811381,26.5164796 7.88274787,26.6670918 7.23598966,27.0036735 C6.97366182,27.1455612 6.67644754,27.3315306 6.59761327,27.6417092 C6.54528362,27.9073469 6.73761207,28.1465816 6.92971398,28.2971939" fill="#3471C0"></path>
                            <path d="M6.92971398,28.2971939 C7.38437027,28.6604082 7.92646917,28.8642857 8.46834155,29.0592092 C8.29368285,28.8466071 8.04879822,28.6427296 8.03135501,28.3504592 C8.02274667,28.1644898 8.1713538,28.022602 8.31973441,27.9339796 C8.60811381,27.7833673 8.93160618,27.730102 9.25532508,27.6860204 C10.9334984,27.5087755 12.6293414,27.411199 14.325411,27.5264541 C15.8724204,27.6061224 17.4112745,27.8632653 18.9412937,28.1378571 C19.360837,27.7390561 19.8589881,27.4644643 20.3836438,27.2252296 C18.5387405,26.6760459 16.6419607,26.3569133 14.736346,26.206301 C12.9356171,26.0823214 11.1086101,26.0910459 9.31626307,26.3837755 C8.60811381,26.5164796 7.88274787,26.6670918 7.23598966,27.0036735 C6.97366182,27.1455612 6.67644754,27.3315306 6.59761327,27.6417092 C6.54528362,27.9073469 6.73761207,28.1465816 6.92971398,28.2971939 L6.92971398,28.2971939 Z" stroke="#3471C0" stroke-width="0.1"></path>
                            <path d="M7.944592,24.4354592 C8.3466921,24.7633163 8.84484317,24.9318367 9.33461243,25.0734949 C9.17717041,24.9231122 8.89739935,24.7369133 9.01995493,24.48 C9.25600469,24.1695918 9.69299123,24.1342347 10.0427617,24.0543367 C11.5199982,23.8685969 13.0149045,23.7446173 14.4923675,23.8598724 C15.6112252,23.9305867 16.7124132,24.1342347 17.8054459,24.3293878 C18.4345343,23.9569898 19.0903539,23.6383163 19.7631637,23.3545408 C18.7319751,22.8852551 17.6217258,22.5840306 16.5117029,22.371199 C14.6409746,22.0346173 12.7088553,21.9903061 10.8292922,22.2915306 C9.99881384,22.4421429 9.15089232,22.6368367 8.39924829,23.0535459 C8.11064235,23.2216071 7.80481973,23.4167602 7.68249069,23.7446173 C7.5862132,24.0015306 7.74342867,24.2758929 7.944592,24.4354592" fill="#3471C0"></path>
                            <path d="M7.944592,24.4354592 C8.3466921,24.7633163 8.84484317,24.9318367 9.33461243,25.0734949 C9.17717041,24.9231122 8.89739935,24.7369133 9.01995493,24.48 C9.25600469,24.1695918 9.69299123,24.1342347 10.0427617,24.0543367 C11.5199982,23.8685969 13.0149045,23.7446173 14.4923675,23.8598724 C15.6112252,23.9305867 16.7124132,24.1342347 17.8054459,24.3293878 C18.4345343,23.9569898 19.0903539,23.6383163 19.7631637,23.3545408 C18.7319751,22.8852551 17.6217258,22.5840306 16.5117029,22.371199 C14.6409746,22.0346173 12.7088553,21.9903061 10.8292922,22.2915306 C9.99881384,22.4421429 9.15089232,22.6368367 8.39924829,23.0535459 C8.11064235,23.2216071 7.80481973,23.4167602 7.68249069,23.7446173 C7.5862132,24.0015306 7.74342867,24.2758929 7.944592,24.4354592 L7.944592,24.4354592 Z" stroke="#3471C0" stroke-width="0.1"></path>
                            <path d="M3.09220647,21.9283163 C3.89663322,22.2029082 4.72711153,22.4244643 5.57503305,22.4508673 C5.91596863,22.4598214 6.26551256,22.4421429 6.56272684,22.264898 C5.54875496,22.2029082 4.53455654,21.9459949 3.6254705,21.4764796 C3.42453371,21.3612245 3.1970923,21.2282908 3.11848456,20.9890561 C3.11848456,20.7144643 3.42453371,20.6258418 3.6254705,20.537449 C4.89316188,20.0589796 6.24806934,19.9083673 7.57692525,19.7664796 C11.5367618,19.429898 15.5228765,19.5182908 19.4829396,19.8817347 C20.9778458,20.0500255 22.4813604,20.2183163 23.9325454,20.6347959 C24.39581,20.7943622 24.9202392,20.9534694 25.2262883,21.3701786 C25.4100084,21.6181378 25.2879059,21.9283163 25.1041858,22.1409184 C25.4011735,21.972398 25.8209434,21.7597959 25.7600054,21.3522704 C25.6462847,20.9270663 25.2174534,20.7055102 24.8679095,20.5018622 C23.7490518,19.9258163 22.5164734,19.6333163 21.2925033,19.3766327 C17.7347669,18.6678827 14.0893613,18.5083163 10.4702337,18.6146173 C7.74274907,18.7124235 5.01549093,18.9780612 2.32289268,19.4473469 C1.84218483,19.562602 1.30031246,19.6604082 0.950542002,20.0410714 C0.723327124,20.3069388 0.924263911,20.6791071 1.14264391,20.873801 C1.69357769,21.3876276 2.40172696,21.6711735 3.09220647,21.9283163" fill="#3471C0"></path>
                            <path d="M3.09220647,21.9283163 C3.89663322,22.2029082 4.72711153,22.4244643 5.57503305,22.4508673 C5.91596863,22.4598214 6.26551256,22.4421429 6.56272684,22.264898 C5.54875496,22.2029082 4.53455654,21.9459949 3.6254705,21.4764796 C3.42453371,21.3612245 3.1970923,21.2282908 3.11848456,20.9890561 C3.11848456,20.7144643 3.42453371,20.6258418 3.6254705,20.537449 C4.89316188,20.0589796 6.24806934,19.9083673 7.57692525,19.7664796 C11.5367618,19.429898 15.5228765,19.5182908 19.4829396,19.8817347 C20.9778458,20.0500255 22.4813604,20.2183163 23.9325454,20.6347959 C24.39581,20.7943622 24.9202392,20.9534694 25.2262883,21.3701786 C25.4100084,21.6181378 25.2879059,21.9283163 25.1041858,22.1409184 C25.4011735,21.972398 25.8209434,21.7597959 25.7600054,21.3522704 C25.6462847,20.9270663 25.2174534,20.7055102 24.8679095,20.5018622 C23.7490518,19.9258163 22.5164734,19.6333163 21.2925033,19.3766327 C17.7347669,18.6678827 14.0893613,18.5083163 10.4702337,18.6146173 C7.74274907,18.7124235 5.01549093,18.9780612 2.32289268,19.4473469 C1.84218483,19.562602 1.30031246,19.6604082 0.950542002,20.0410714 C0.723327124,20.3069388 0.924263911,20.6791071 1.14264391,20.873801 C1.69357769,21.3876276 2.40172696,21.6711735 3.09220647,21.9283163 L3.09220647,21.9283163 Z" stroke="#3471C0" stroke-width="0.1"></path>
                            <path d="M24.8781036,18.8977041 C25.7613646,19.2078827 26.7051106,19.5357398 27.3607036,20.2444898 C27.2469829,19.47375 26.5913899,18.9420153 25.9444051,18.5967092 C24.7034449,17.9407653 23.3131979,17.6397704 21.9324654,17.3918112 C19.0121993,16.9220663 16.0491179,16.8070408 13.0853569,16.8598469 C11.0660215,16.9220663 9.02924288,17.0017347 7.04479389,17.4271684 C6.57269439,17.5598724 6.06570845,17.6487245 5.655,17.9320408 C7.42061591,17.6308163 9.21296299,17.5066071 11.0050835,17.4358929 C13.9509482,17.3472704 16.9056478,17.4622959 19.8342958,17.8346939 C21.5301388,18.073699 23.2345902,18.366199 24.8781036,18.8977041" fill="#3471C0"></path>
                            <path d="M24.8781036,18.8977041 C25.7613646,19.2078827 26.7051106,19.5357398 27.3607036,20.2444898 C27.2469829,19.47375 26.5913899,18.9420153 25.9444051,18.5967092 C24.7034449,17.9407653 23.3131979,17.6397704 21.9324654,17.3918112 C19.0121993,16.9220663 16.0491179,16.8070408 13.0853569,16.8598469 C11.0660215,16.9220663 9.02924288,17.0017347 7.04479389,17.4271684 C6.57269439,17.5598724 6.06570845,17.6487245 5.655,17.9320408 C7.42061591,17.6308163 9.21296299,17.5066071 11.0050835,17.4358929 C13.9509482,17.3472704 16.9056478,17.4622959 19.8342958,17.8346939 C21.5301388,18.073699 23.2345902,18.366199 24.8781036,18.8977041 Z" stroke="#3471C0" stroke-width="0.1"></path>
                            <path d="M1.84173176,5.75816327 C1.8503401,8.66410714 1.83289689,11.570051 1.8503401,14.484949 C2.44476866,14.4672704 3.03919721,14.484949 3.63362577,14.4672704 C3.62501743,11.2155612 3.63362577,7.95535714 3.62501743,4.69492347 C3.60757421,3.78229592 3.59013099,2.82535714 3.15291792,2.01076531 C2.67198354,1.1419898 1.81545367,0.530816327 0.906367624,0.176326531 C0.617761687,0.495459184 0.355660377,0.832270408 0.0670544406,1.15094388 C0.801481793,1.58510204 1.53590915,2.20522959 1.71056784,3.10017857 C1.87684473,3.97744898 1.82428855,4.87193878 1.84173176,5.75816327" fill="#E9232E"></path>
                            <path d="M1.84173176,5.75816327 C1.8503401,8.66410714 1.83289689,11.570051 1.8503401,14.484949 C2.44476866,14.4672704 3.03919721,14.484949 3.63362577,14.4672704 C3.62501743,11.2155612 3.63362577,7.95535714 3.62501743,4.69492347 C3.60757421,3.78229592 3.59013099,2.82535714 3.15291792,2.01076531 C2.67198354,1.1419898 1.81545367,0.530816327 0.906367624,0.176326531 C0.617761687,0.495459184 0.355660377,0.832270408 0.0670544406,1.15094388 C0.801481793,1.58510204 1.53590915,2.20522959 1.71056784,3.10017857 C1.87684473,3.97744898 1.82428855,4.87193878 1.84173176,5.75816327 Z" stroke="#E9232E" stroke-width="0.1"></path>
                            <path d="M7.45527581,6.87397959 C7.07061892,6.75022959 6.71224012,6.46668367 6.60735428,6.05915816 C6.48502524,5.60732143 6.51991167,5.07581633 6.80829107,4.69469388 C7.08828867,4.32252551 7.59527461,4.23413265 8.03226115,4.28716837 C8.64413292,4.35811224 9.17739695,4.71260204 9.64949645,5.09326531 C9.64949645,5.75793367 9.64066158,6.41341837 9.64949645,7.07808673 C8.9150691,7.07808673 8.16342507,7.12216837 7.45527581,6.87397959 L7.45527581,6.87397959 Z M5.28733325,10.985051 C6.46735549,11.4991071 7.77876818,11.7649745 9.06367624,11.6233163 C9.72810419,11.5434184 10.4188102,11.295 10.8469619,10.7545408 C11.2053407,10.2942092 11.3367312,9.70048469 11.3278963,9.12466837 L11.3278963,3.17961735 L10.0078753,3.17961735 C9.96415395,3.47234694 9.92065918,3.77311224 9.88554621,4.07456633 C9.38716861,3.67576531 8.85413111,3.29487245 8.23319793,3.13553571 C7.52504867,2.94933673 6.74735308,2.96701531 6.05664704,3.24183673 C5.52315647,3.46316327 5.10383968,3.95035714 4.95523254,4.51744898 C4.73662601,5.34145408 4.85034671,6.30711735 5.42733205,6.97178571 C5.94292633,7.58295918 6.72107499,7.88418367 7.49016224,8.02607143 C8.1983115,8.16772959 8.92390398,8.16772959 9.64949645,8.16772959 C9.63205324,8.72609694 9.73693907,9.33727041 9.42205504,9.83318878 C9.16856207,10.2143112 8.70529744,10.3649235 8.27714578,10.3913265 C7.34178164,10.4712245 6.41502584,10.2319898 5.53199135,9.92181122 C5.44477527,10.2760714 5.36594099,10.6305612 5.28733325,10.985051 L5.28733325,10.985051 Z" fill="#E9232E"></path>
                            <path d="M7.45527581,6.87397959 C7.07061892,6.75022959 6.71224012,6.46668367 6.60735428,6.05915816 C6.48502524,5.60732143 6.51991167,5.07581633 6.80829107,4.69469388 C7.08828867,4.32252551 7.59527461,4.23413265 8.03226115,4.28716837 C8.64413292,4.35811224 9.17739695,4.71260204 9.64949645,5.09326531 C9.64949645,5.75793367 9.64066158,6.41341837 9.64949645,7.07808673 C8.9150691,7.07808673 8.16342507,7.12216837 7.45527581,6.87397959 L7.45527581,6.87397959 Z M5.28733325,10.985051 C6.46735549,11.4991071 7.77876818,11.7649745 9.06367624,11.6233163 C9.72810419,11.5434184 10.4188102,11.295 10.8469619,10.7545408 C11.2053407,10.2942092 11.3367312,9.70048469 11.3278963,9.12466837 L11.3278963,3.17961735 L10.0078753,3.17961735 C9.96415395,3.47234694 9.92065918,3.77311224 9.88554621,4.07456633 C9.38716861,3.67576531 8.85413111,3.29487245 8.23319793,3.13553571 C7.52504867,2.94933673 6.74735308,2.96701531 6.05664704,3.24183673 C5.52315647,3.46316327 5.10383968,3.95035714 4.95523254,4.51744898 C4.73662601,5.34145408 4.85034671,6.30711735 5.42733205,6.97178571 C5.94292633,7.58295918 6.72107499,7.88418367 7.49016224,8.02607143 C8.1983115,8.16772959 8.92390398,8.16772959 9.64949645,8.16772959 C9.63205324,8.72609694 9.73693907,9.33727041 9.42205504,9.83318878 C9.16856207,10.2143112 8.70529744,10.3649235 8.27714578,10.3913265 C7.34178164,10.4712245 6.41502584,10.2319898 5.53199135,9.92181122 C5.44477527,10.2760714 5.36594099,10.6305612 5.28733325,10.985051 L5.28733325,10.985051 Z" stroke="#E9232E" stroke-width="0.1"></path>
                            <path d="M22.7962444,6.86709184 C22.4290308,6.74311224 22.0878686,6.45979592 21.9741479,6.06971939 C21.8520454,5.61811224 21.8869319,5.08614796 22.1667029,4.69653061 C22.4550823,4.31563776 22.9709031,4.23596939 23.416498,4.2890051 C24.019988,4.37762755 24.5704687,4.71443878 25.0253515,5.12173469 C25.0076818,5.7684949 25.0165166,6.42420918 25.0165166,7.07992347 C24.273481,7.07992347 23.513002,7.1240051 22.7962444,6.86709184 Z M20.6543534,10.9868878 C21.8432106,11.5009439 23.1546232,11.7753061 24.4483662,11.6251531 C25.0951244,11.5452551 25.7597789,11.3057908 26.187704,10.7919643 C26.5898041,10.305 26.7123597,9.65778061 26.7035248,9.03765306 C26.6946899,7.07992347 26.7123597,5.13068878 26.6863081,3.17272959 C26.2490951,3.19017857 25.811882,3.16377551 25.3748954,3.19017857 C25.3309476,3.49163265 25.2960612,3.78390306 25.2439581,4.07640306 C24.6318598,3.54466837 23.8974324,3.1105102 23.0669541,3.03979592 C22.3064752,2.96885204 21.4497188,3.06619898 20.8550637,3.61584184 C20.234357,4.20038265 20.1299243,5.14836735 20.2871398,5.95469388 C20.4357469,6.69880102 20.9866807,7.31020408 21.6506556,7.63806122 C22.6909055,8.15188776 23.8802157,8.17852041 25.0165166,8.16956633 C24.9986204,8.70979592 25.0951244,9.28584184 24.8239617,9.77303571 C24.61419,10.1631122 24.1681421,10.3403571 23.7488253,10.3844388 C22.7785747,10.4907398 21.8083241,10.242551 20.8990115,9.92364796 C20.8201773,10.2779082 20.7329612,10.632398 20.6543534,10.9868878 L20.6543534,10.9868878 Z" fill="#E9232E"></path>
                            <path d="M22.7962444,6.86709184 C22.4290308,6.74311224 22.0878686,6.45979592 21.9741479,6.06971939 C21.8520454,5.61811224 21.8869319,5.08614796 22.1667029,4.69653061 C22.4550823,4.31563776 22.9709031,4.23596939 23.416498,4.2890051 C24.019988,4.37762755 24.5704687,4.71443878 25.0253515,5.12173469 C25.0076818,5.7684949 25.0165166,6.42420918 25.0165166,7.07992347 C24.273481,7.07992347 23.513002,7.1240051 22.7962444,6.86709184 Z M20.6543534,10.9868878 C21.8432106,11.5009439 23.1546232,11.7753061 24.4483662,11.6251531 C25.0951244,11.5452551 25.7597789,11.3057908 26.187704,10.7919643 C26.5898041,10.305 26.7123597,9.65778061 26.7035248,9.03765306 C26.6946899,7.07992347 26.7123597,5.13068878 26.6863081,3.17272959 C26.2490951,3.19017857 25.811882,3.16377551 25.3748954,3.19017857 C25.3309476,3.49163265 25.2960612,3.78390306 25.2439581,4.07640306 C24.6318598,3.54466837 23.8974324,3.1105102 23.0669541,3.03979592 C22.3064752,2.96885204 21.4497188,3.06619898 20.8550637,3.61584184 C20.234357,4.20038265 20.1299243,5.14836735 20.2871398,5.95469388 C20.4357469,6.69880102 20.9866807,7.31020408 21.6506556,7.63806122 C22.6909055,8.15188776 23.8802157,8.17852041 25.0165166,8.16956633 C24.9986204,8.70979592 25.0951244,9.28584184 24.8239617,9.77303571 C24.61419,10.1631122 24.1681421,10.3403571 23.7488253,10.3844388 C22.7785747,10.4907398 21.8083241,10.242551 20.8990115,9.92364796 C20.8201773,10.2779082 20.7329612,10.632398 20.6543534,10.9868878 L20.6543534,10.9868878 Z" stroke="#E9232E" stroke-width="0.1"></path>
                            <path d="M12.3235188,11.5186224 L14.1591341,11.5186224 C14.5177395,10.3493112 14.8672834,9.1884949 15.2261153,8.01918367 C15.4354338,7.30170918 15.6977617,6.59272959 15.8463688,5.85734694 C15.9252031,5.5294898 15.994976,5.19267857 16.0910269,4.87377551 C16.8433506,7.02665816 17.4201094,9.25071429 17.7175502,11.5186224 L19.5006093,11.5186224 C18.9847885,8.64826531 18.1719799,5.8219898 16.9480099,3.18168367 L14.8500667,3.18168367 C14.0107535,5.96364796 13.162832,8.73665816 12.3235188,11.5186224" fill="#E9232E"></path>
                            <path d="M12.3235188,11.5186224 L14.1591341,11.5186224 C14.5177395,10.3493112 14.8672834,9.1884949 15.2261153,8.01918367 C15.4354338,7.30170918 15.6977617,6.59272959 15.8463688,5.85734694 C15.9252031,5.5294898 15.994976,5.19267857 16.0910269,4.87377551 C16.8433506,7.02665816 17.4201094,9.25071429 17.7175502,11.5186224 L19.5006093,11.5186224 C18.9847885,8.64826531 18.1719799,5.8219898 16.9480099,3.18168367 L14.8500667,3.18168367 C14.0107535,5.96364796 13.162832,8.73665816 12.3235188,11.5186224 L12.3235188,11.5186224 Z" stroke="#E9232E" stroke-width="0.1"></path>
                            <polyline fill="#E9232E" points="27.0528422 11.6793367 26.8383133 11.6793367 26.8383133 11.7580867 27.3611567 11.7580867 27.3611567 11.6793367 27.1452686 11.6793367 27.1452686 11.0417602 27.0528422 11.0417602 27.0528422 11.6793367"></polyline>
                            <polygon stroke="#E9232E" stroke-width="0.1" points="27.0528422 11.6793367 26.8383133 11.6793367 26.8383133 11.7580867 27.3611567 11.7580867 27.3611567 11.6793367 27.1452686 11.6793367 27.1452686 11.0417602 27.0528422 11.0417602"></polygon>
                            <path d="M28.0360053,11.3556122 C28.0310215,11.4554847 28.024452,11.5767092 28.024452,11.6646429 L28.0226397,11.6646429 C27.9974943,11.5819898 27.9691774,11.4915306 27.9333848,11.3928061 L27.8085639,11.0452041 L27.7394706,11.0452041 L27.6239376,11.3863776 C27.5908635,11.4883163 27.5634527,11.5796939 27.5435176,11.6646429 L27.5412523,11.6646429 C27.5389869,11.5755612 27.5337766,11.4564031 27.5276601,11.3480357 L27.5090842,11.0410714 L27.4218682,11.0410714 L27.4710263,11.757398 L27.5872389,11.757398 L27.7082087,11.4107143 C27.7372053,11.322551 27.7603119,11.243801 27.7793408,11.1694133 L27.7816062,11.1694133 C27.8001821,11.2419643 27.8253275,11.3204847 27.8568159,11.4107143 L27.9827695,11.757398 L28.0992086,11.757398 L28.1429299,11.0410714 L28.0527689,11.0410714 L28.0360053,11.3556122" fill="#E9232E"></path>
                            <path d="M28.0360053,11.3556122 C28.0310215,11.4554847 28.024452,11.5767092 28.024452,11.6646429 L28.0226397,11.6646429 C27.9974943,11.5819898 27.9691774,11.4915306 27.9333848,11.3928061 L27.8085639,11.0452041 L27.7394706,11.0452041 L27.6239376,11.3863776 C27.5908635,11.4883163 27.5634527,11.5796939 27.5435176,11.6646429 L27.5412523,11.6646429 C27.5389869,11.5755612 27.5337766,11.4564031 27.5276601,11.3480357 L27.5090842,11.0410714 L27.4218682,11.0410714 L27.4710263,11.757398 L27.5872389,11.757398 L27.7082087,11.4107143 C27.7372053,11.322551 27.7603119,11.243801 27.7793408,11.1694133 L27.7816062,11.1694133 C27.8001821,11.2419643 27.8253275,11.3204847 27.8568159,11.4107143 L27.9827695,11.757398 L28.0992086,11.757398 L28.1429299,11.0410714 L28.0527689,11.0410714 L28.0360053,11.3556122 L28.0360053,11.3556122 Z" stroke="#E9232E" stroke-width="0.1"></path>
                        </g>
                    </g>
                </g>
            </g>
        </g>
    </g>
</svg>