<?xml version="1.0" encoding="UTF-8"?>
<svg width="70px" height="70px" viewBox="0 0 70 70" version="1.1" xmlns="http://www.w3.org/2000/svg" xmlns:xlink="http://www.w3.org/1999/xlink">
    <!-- Generator: Sketch 41.1 (35376) - http://www.bohemiancoding.com/sketch -->
    <title>materialize-logo</title>
    <desc>Created with Sketch.</desc>
    <defs></defs>
    <g stroke="none" stroke-width="1" fill="none" fill-rule="evenodd">
        <g transform="translate(-534.000000, -1715.000000)">
            <g transform="translate(535.000000, 1716.000000)">
                <circle stroke="#F0F0F0" fill="#F4F4F4" cx="34" cy="34" r="34"></circle>
                <g transform="translate(5.500000, 19.500000)">
                    <g>
                        <g>
                            <g>
                                <g>
                                    <g>
                                        <path d="M48.3333333,15.4157895 L56.6263158,15.4157895 C53.7263158,16.3824561 52.8105263,18.3157895 52.3017544,23.8105263 C51.945614,27.7280702 50.1649123,28.745614 50.1649123,28.745614 C48.8421053,28.745614 47.5192982,23.0982456 46.3491228,17.0947368 C46.8070175,16.077193 47.4175439,15.5684211 48.3333333,15.4157895 L48.3333333,15.4157895 Z" fill="#EB7077"></path>
                                        <path d="M50.1140351,28.6947368 L41.8210526,28.6947368 C43.2964912,28.6947368 44.3140351,25.8964912 44.9245614,22.3350877 C45.3315789,19.9438596 45.7385965,18.2140351 46.2982456,17.0438596 C47.4684211,23.0473684 48.7912281,28.6947368 50.1140351,28.6947368 L50.1140351,28.6947368 Z" fill="#EB7077"></path>
                                        <path d="M46.2982456,17.0438596 C45.6877193,18.1631579 45.2807018,19.9438596 44.9245614,22.3350877 C44.3140351,25.8964912 43.2964912,28.6947368 41.8210526,28.6947368 C40.2438596,28.3385965 38.9719298,22.3350877 37.2929825,13.177193 C37.2421053,12.8719298 37.1912281,12.6175439 37.1403509,12.3122807 C38.4122807,5.69824561 39.7350877,0 41.0578947,0 L41.5157895,0 C43.0929825,0.356140351 44.3649123,6.35964912 46.0438596,15.5175439 C46.145614,16.077193 46.1964912,16.5350877 46.2982456,17.0438596 L46.2982456,17.0438596 Z" fill="#F6A2AD"></path>
                                        <path d="M33.222807,0.050877193 L41.0578947,0.050877193 C39.7350877,0.050877193 38.3614035,5.74912281 37.1403509,12.3631579 C35.9701754,6.15614035 34.5964912,0.050877193 33.222807,0.050877193 L33.222807,0.050877193 Z" fill="#EB7077"></path>
                                        <path d="M37.1403509,12.3631579 C37.0385965,13.0245614 36.8859649,13.6859649 36.7842105,14.3982456 C34.9017544,24.6754386 33.7824561,28.4403509 32.4596491,28.745614 C30.9842105,28.745614 29.5596491,22.0807018 28.3894737,15.5684211 C28.3894737,15.4666667 28.3385965,15.3649123 28.3385965,15.2631579 C28.3894737,14.9578947 28.4403509,14.7035088 28.4912281,14.3982456 C30.3736842,4.07017544 31.4929825,0.356140351 32.7649123,0.050877193 L33.222807,0.050877193 C34.5964912,0.050877193 35.9701754,6.15614035 37.1403509,12.3631579 L37.1403509,12.3631579 Z" fill="#EB7077"></path>
                                        <path d="M32.4596491,28.6947368 L24.1666667,28.6947368 C25.5912281,28.6947368 27.0157895,22.3350877 28.2877193,15.2122807 C28.2877193,15.3140351 28.3385965,15.4157895 28.3385965,15.5175439 C29.5596491,22.0807018 31.0350877,28.6947368 32.4596491,28.6947368 L32.4596491,28.6947368 Z" fill="#EB7077"></path>
                                        <path d="M28.3385965,15.2631579 C27.0157895,22.3859649 25.5912281,28.745614 24.2175439,28.745614 C22.5894737,28.3385965 21.3684211,22.3350877 19.6385965,13.2280702 C19.5877193,12.922807 19.5368421,12.6684211 19.4859649,12.3631579 C20.7578947,5.74912281 22.0807018,0.050877193 23.4035088,0.050877193 L23.8614035,0.050877193 C25.4385965,0.407017544 26.6596491,6.30877193 28.3385965,15.2631579 L28.3385965,15.2631579 Z" fill="#F6A2AD"></path>
                                        <path d="M15.5684211,0.050877193 L23.4035088,0.050877193 C22.0807018,0.050877193 20.7578947,5.74912281 19.4859649,12.3631579 C18.3157895,6.15614035 16.9421053,0.050877193 15.5684211,0.050877193 L15.5684211,0.050877193 Z" fill="#EB7077"></path>
                                        <path d="M19.4859649,12.3631579 C19.3842105,13.0245614 19.2315789,13.6859649 19.1298246,14.3982456 C17.2473684,24.6754386 16.1280702,28.4403509 14.8052632,28.745614 C13.3298246,28.745614 13.8894737,28.4912281 12.9736842,24.3701754 C12.0578947,20.2491228 11.345614,17.8070175 10.3789474,16.5350877 C10.5315789,15.822807 10.6333333,15.1105263 10.7859649,14.3982456 C12.7192982,4.07017544 13.8385965,0.356140351 15.1105263,0.050877193 L15.5684211,0.050877193 C16.9421053,0.050877193 18.3157895,6.15614035 19.4859649,12.3631579 L19.4859649,12.3631579 Z" fill="#EB7077"></path>
                                        <path d="M14.8052632,28.6947368 L6.5122807,28.6947368 C7.83508772,28.6947368 9.15789474,23.0473684 10.4298246,16.4842105 C11.345614,17.7561404 12.0578947,20.1982456 13.0245614,24.3192982 C13.9403509,28.4403509 13.3298246,28.6947368 14.8052632,28.6947368 L14.8052632,28.6947368 Z" fill="#EB7077"></path>
                                        <path d="M10.4298246,16.4842105 C9.15789474,23.0473684 7.83508772,28.6947368 6.5122807,28.6947368 C6.35964912,28.4912281 5.44385965,28.6947368 4.57894737,23.6070175 C3.81578947,18.9263158 2.44210526,15.9754386 0.203508772,15.4157895 L8.49649123,15.4157895 C9.31052632,15.4666667 9.87017544,15.7719298 10.4298246,16.4842105 L10.4298246,16.4842105 Z" fill="#F6A2AD"></path>
                                    </g>
                                </g>
                            </g>
                        </g>
                        <g>
                            <g>
                                <g>
                                    <g>
                                        <path d="M48.3333333,15.3649123 L56.6263158,15.3649123 C53.7263158,16.3315789 52.8105263,18.2649123 52.3017544,23.7596491 C51.945614,27.677193 50.1649123,28.6947368 50.1649123,28.6947368 C48.8421053,28.6947368 47.5192982,23.0473684 46.3491228,17.0438596 C46.8070175,16.0263158 47.4175439,15.5175439 48.3333333,15.3649123 L48.3333333,15.3649123 Z" fill="#EB7077"></path>
                                        <path d="M50.1140351,28.6438596 L41.8210526,28.6438596 C43.2964912,28.6438596 44.3140351,25.845614 44.9245614,22.2842105 C45.3315789,19.8929825 45.7385965,18.1631579 46.2982456,16.9929825 C47.4684211,22.9964912 48.7912281,28.6438596 50.1140351,28.6438596 L50.1140351,28.6438596 Z" fill="#EB7077"></path>
                                        <path d="M46.2982456,16.9929825 C45.6877193,18.1122807 45.2807018,19.8929825 44.9245614,22.2842105 C44.3140351,25.845614 43.2964912,28.6438596 41.8210526,28.6438596 C40.2438596,28.2877193 38.9719298,22.2842105 37.2929825,13.1263158 C37.2421053,12.8210526 37.1912281,12.5666667 37.1403509,12.2614035 C38.4122807,5.69824561 39.7350877,0 41.0578947,0 L41.5157895,0 C43.0929825,0.356140351 44.3649123,6.35964912 46.0438596,15.5175439 C46.145614,15.9754386 46.1964912,16.4842105 46.2982456,16.9929825 L46.2982456,16.9929825 Z" fill="#F6A2AD"></path>
                                        <path d="M33.222807,0 L41.0578947,0 C39.7350877,0 38.3614035,5.69824561 37.1403509,12.3122807 C35.9701754,6.10526316 34.5964912,0 33.222807,0 L33.222807,0 Z" fill="#EB7077"></path>
                                        <path d="M37.1403509,12.3122807 C37.0385965,12.9736842 36.8859649,13.6350877 36.7842105,14.3473684 C34.9017544,24.6245614 33.7824561,28.3894737 32.4596491,28.6947368 C30.9842105,28.6947368 29.5596491,22.0298246 28.3894737,15.5175439 C28.3894737,15.4157895 28.3385965,15.3140351 28.3385965,15.2122807 C28.3894737,14.9070175 28.4403509,14.6526316 28.4912281,14.3473684 C30.3736842,4.01929825 31.4929825,0.305263158 32.7649123,0 L33.222807,0 C34.5964912,0 35.9701754,6.10526316 37.1403509,12.3122807 L37.1403509,12.3122807 Z" fill="#EB7077"></path>
                                        <path d="M32.4596491,28.6438596 L24.1666667,28.6438596 C25.5912281,28.6438596 27.0157895,22.2842105 28.2877193,15.1614035 C28.2877193,15.2631579 28.3385965,15.3649123 28.3385965,15.4666667 C29.5596491,22.0298246 31.0350877,28.6438596 32.4596491,28.6438596 L32.4596491,28.6438596 Z" fill="#EB7077"></path>
                                        <path d="M28.3385965,15.2122807 C27.0157895,22.3350877 25.5912281,28.6947368 24.2175439,28.6947368 C22.6403509,28.3385965 21.3684211,22.3350877 19.6894737,13.177193 C19.6385965,12.8719298 19.5877193,12.6175439 19.5368421,12.3122807 C20.7578947,5.69824561 22.0807018,0 23.4035088,0 L23.8614035,0 C25.4385965,0.356140351 26.6596491,6.20701754 28.3385965,15.2122807 L28.3385965,15.2122807 Z" fill="#F6A2AD"></path>
                                        <path d="M15.5684211,0 L23.4035088,0 C22.0807018,0 20.7578947,5.69824561 19.4859649,12.3122807 C18.3157895,6.10526316 16.9421053,0 15.5684211,0 L15.5684211,0 Z" fill="#EB7077"></path>
                                        <path d="M19.4859649,12.3122807 C19.3842105,12.9736842 19.2315789,13.6350877 19.1298246,14.3473684 C17.2473684,24.6245614 16.1280702,28.3894737 14.8052632,28.6947368 C13.3298246,28.6947368 13.8894737,28.4403509 12.9736842,24.3192982 C12.0578947,20.1982456 11.345614,17.7561404 10.3789474,16.4842105 C10.5315789,15.7719298 10.6333333,15.0596491 10.7859649,14.3473684 C12.7192982,4.01929825 13.8385965,0.305263158 15.1105263,0 L15.5684211,0 C16.9421053,0 18.3157895,6.10526316 19.4859649,12.3122807 L19.4859649,12.3122807 Z" fill="#EB7077"></path>
                                        <path d="M14.8052632,28.6438596 L6.5122807,28.6438596 C7.83508772,28.6438596 9.15789474,22.9964912 10.4298246,16.4333333 C11.345614,17.7052632 12.0578947,20.1473684 13.0245614,24.2684211 C13.9403509,28.3894737 13.3298246,28.6438596 14.8052632,28.6438596 L14.8052632,28.6438596 Z" fill="#EB7077"></path>
                                        <path d="M10.4298246,16.4333333 C9.15789474,22.9964912 7.83508772,28.6438596 6.5122807,28.6438596 C6.35964912,28.4403509 5.44385965,28.6438596 4.57894737,23.5561404 C3.81578947,18.8754386 2.44210526,15.9245614 0.203508772,15.3649123 L8.49649123,15.3649123 C9.31052632,15.3649123 9.87017544,15.7210526 10.4298246,16.4333333 L10.4298246,16.4333333 Z" fill="#F6A2AD"></path>
                                    </g>
                                </g>
                            </g>
                        </g>
                    </g>
                </g>
            </g>
        </g>
    </g>
</svg>