<?xml version="1.0" encoding="UTF-8"?>
<svg width="70px" height="70px" viewBox="0 0 70 70" version="1.1" xmlns="http://www.w3.org/2000/svg" xmlns:xlink="http://www.w3.org/1999/xlink">
    <!-- Generator: Sketch 41.1 (35376) - http://www.bohemiancoding.com/sketch -->
    <title>mongo-logo</title>
    <desc>Created with Sketch.</desc>
    <defs></defs>
    <g stroke="none" stroke-width="1" fill="none" fill-rule="evenodd">
        <g transform="translate(-934.000000, -1408.000000)">
            <g transform="translate(935.000000, 1409.000000)">
                <circle stroke="#F0F0F0" fill="#F4F4F4" cx="34" cy="34" r="34"></circle>
                <g transform="translate(22.000000, 7.500000)">
                    <g transform="translate(0.258850, 0.046018)">
                        <path d="M12.6612853,51.1477576 L11.294706,50.6832351 C11.294706,50.6832351 11.4615521,43.7517009 8.96166629,43.2542864 C7.29507576,41.3307219 9.22830831,-38.3325808 15.2279095,42.9889777 C15.2279095,42.9889777 13.1615119,44.0170096 12.7947622,45.7748723 C12.3946432,47.4995329 12.6612853,51.1477576 12.6612853,51.1477576 L12.6612853,51.1477576 L12.6612853,51.1477576 L12.6612853,51.1477576 Z" fill="#FFFFFF"></path>
                        <path d="M12.6612853,51.1477576 L11.294706,50.6832351 C11.294706,50.6832351 11.4615521,43.7517009 8.96166629,43.2542864 C7.29507576,41.3307219 9.22830831,-38.3325808 15.2279095,42.9889777 C15.2279095,42.9889777 13.1615119,44.0170096 12.7947622,45.7748723 C12.3946432,47.4995329 12.6612853,51.1477576 12.6612853,51.1477576 L12.6612853,51.1477576 L12.6612853,51.1477576 L12.6612853,51.1477576 Z" fill="#A6A385"></path>
                        <path d="M13.3947846,44.4483299 C13.3947846,44.4483299 25.3609297,36.6212631 22.5610326,20.336906 C19.8612433,8.49700934 13.4945805,4.61667841 12.7947622,3.1241241 C12.0282054,2.06289005 11.2947059,0.205730461 11.2947059,0.205730461 L11.7949326,33.1387399 C11.7949326,33.1719423 10.7614219,43.2210839 13.3947846,44.4483299" fill="#FFFFFF"></path>
                        <path d="M13.3947846,44.4483299 C13.3947846,44.4483299 25.3609297,36.6212631 22.5610326,20.336906 C19.8612433,8.49700934 13.4945805,4.61667841 12.7947622,3.1241241 C12.0282054,2.06289005 11.2947059,0.205730461 11.2947059,0.205730461 L11.7949326,33.1387399 C11.7949326,33.1719423 10.7614219,43.2210839 13.3947846,44.4483299" fill="#499D4A"></path>
                        <path d="M10.5948879,44.8793397 C10.5948879,44.8793397 -0.638069658,37.2511768 0.0286913043,23.8194293 C0.661771172,10.3873713 8.59491681,3.78755053 10.1280305,2.59350708 C11.1281718,1.53227302 11.1615411,1.1341551 11.2282796,0.0729210533 C11.9280979,1.56547537 11.7949328,22.3932797 11.8947287,24.847461 C12.1947399,34.299581 11.3614446,43.088585 10.5948879,44.8793397 L10.5948879,44.8793397 L10.5948879,44.8793397 L10.5948879,44.8793397 Z" fill="#FFFFFF"></path>
                        <path d="M10.5948879,44.8793397 C10.5948879,44.8793397 -0.638069658,37.2511768 0.0286913043,23.8194293 C0.661771172,10.3873713 8.59491681,3.78755053 10.1280305,2.59350708 C11.1281718,1.53227302 11.1615411,1.1341551 11.2282796,0.0729210533 C11.9280979,1.56547537 11.7949328,22.3932797 11.8947287,24.847461 C12.1947399,34.299581 11.3614446,43.088585 10.5948879,44.8793397 L10.5948879,44.8793397 L10.5948879,44.8793397 L10.5948879,44.8793397 Z" fill="#58AA50"></path>
                    </g>
                </g>
            </g>
        </g>
    </g>
</svg>