<?xml version="1.0" encoding="UTF-8"?>
<svg width="70px" height="70px" viewBox="0 0 70 70" version="1.1" xmlns="http://www.w3.org/2000/svg" xmlns:xlink="http://www.w3.org/1999/xlink">
    <!-- Generator: Sketch 41.1 (35376) - http://www.bohemiancoding.com/sketch -->
    <title>spring-logo</title>
    <desc>Created with Sketch.</desc>
    <defs></defs>
    <g stroke="none" stroke-width="1" fill="none" fill-rule="evenodd">
        <g transform="translate(-133.000000, -1413.000000)">
            <g transform="translate(134.000000, 1414.000000)">
                <circle stroke="#F0F0F0" fill="#F4F4F4" cx="34" cy="34" r="34"></circle>
                <g transform="translate(14.000000, 14.000000)" fill="#6DB344">
                    <g>
                        <path d="M36.2429907,2.26542056 C35.6871239,3.59038113 34.976922,4.84515485 34.1271028,6.00373832 C29.1050722,0.920351761 21.7408704,-1.07609881 14.8389715,0.774685434 C7.93707259,2.62546968 2.55979851,8.03862095 0.75495107,14.9526745 C-1.04989637,21.866728 0.995480136,29.2174911 6.11214953,34.2056075 L6.35514019,34.4560748 L7.10280374,35.1065421 C12.8205106,39.9296966 20.7625449,41.1328336 27.6522398,38.2195716 C34.5419347,35.3063096 39.2115692,28.7704117 39.7345794,21.3084112 C40.2654206,16.2803738 38.7775701,9.88037383 36.2429907,2.26542056 L36.2429907,2.26542056 Z M9.19252336,34.5906542 C8.76381375,35.1289689 8.05297741,35.3559218 7.39164203,35.1656322 C6.73030666,34.9753426 6.24879178,34.4053081 6.17173935,33.7214678 C6.09468693,33.0376276 6.43728053,32.3747357 7.03968939,32.0420525 C7.64209824,31.7093692 8.3856146,31.7724514 8.92336449,32.2018692 L8.92336449,32.2018692 C9.6567502,32.7875111 9.77719946,33.8564983 9.19252336,34.5906542 L9.19252336,34.5906542 Z M36.1570093,28.6429907 C31.2523364,35.1738318 20.7813084,32.9719626 14.0672897,33.271028 C14.0672897,33.271028 12.8785047,33.3383178 11.682243,33.5364486 C11.682243,33.5364486 12.1345794,33.3420561 12.7140187,33.1439252 C17.4280374,31.5140187 19.6560748,31.1850467 22.5233645,29.7121495 C27.9065421,26.9682243 33.271028,20.964486 34.3476636,14.7214953 C32.3065421,20.7252336 26.071028,25.8915888 20.3962617,27.988785 C16.5121495,29.4242991 9.48785047,30.8149533 9.48785047,30.8186916 L9.20373832,30.6542056 C4.4411215,28.3252336 4.28785047,17.9813084 12.964486,14.646729 C16.7775701,13.1813084 20.4074766,13.9850467 24.5196262,13.0056075 C28.9046729,11.9663551 33.9738318,8.67663551 36.0485981,4.36261682 C38.3663551,11.2560748 41.1439252,22 36.1570093,28.6429907 L36.1570093,28.6429907 Z"></path>
                    </g>
                </g>
            </g>
        </g>
    </g>
</svg>